<?xml version="1.0" encoding="utf-8"?>
<!-- Generator: Adobe Illustrator 17.0.0, SVG Export Plug-In . SVG Version: 6.00 Build 0)  -->
<!DOCTYPE svg PUBLIC "-//W3C//DTD SVG 1.1//EN" "http://www.w3.org/Graphics/SVG/1.1/DTD/svg11.dtd">
<svg version="1.1" id="Layer_1" xmlns="http://www.w3.org/2000/svg" xmlns:xlink="http://www.w3.org/1999/xlink" x="0px" y="0px"
	 width="57px" height="59px" viewBox="0 0 57 59" enable-background="new 0 0 57 59" xml:space="preserve">
<rect width="57" height="59"/>
<rect x="3.5" y="4.5" fill="none" stroke="#FFFFFF" stroke-miterlimit="10" width="50" height="50"/>
<g>
	<path fill="#FFFFFF" d="M42.192,14.117c1.78,1.856,3.172,4.096,4.176,6.719c1.003,2.623,1.505,5.525,1.505,8.707
		c0,3.2-0.511,6.108-1.534,8.722c-1.023,2.613-2.443,4.839-4.261,6.675c-1.761,1.818-3.807,3.22-6.136,4.204
		s-4.811,1.477-7.443,1.477c-2.802,0-5.393-0.525-7.77-1.577c-2.377-1.05-4.418-2.514-6.122-4.389
		c-1.704-1.837-3.044-4.066-4.019-6.69c-0.976-2.623-1.463-5.43-1.463-8.422c0-3.277,0.511-6.197,1.534-8.763
		s2.434-4.786,4.233-6.662c1.78-1.855,3.848-3.276,6.207-4.26c2.357-0.986,4.825-1.477,7.4-1.477c2.67,0,5.189,0.501,7.556,1.505
		S40.469,12.298,42.192,14.117z M37.96,42.695c1.06-1.724,1.832-3.674,2.314-5.853c0.484-2.178,0.725-4.611,0.725-7.3
		c0-2.765-0.27-5.302-0.809-7.613c-0.54-2.311-1.331-4.28-2.372-5.909c-1.041-1.609-2.348-2.864-3.92-3.764
		c-1.572-0.9-3.371-1.35-5.397-1.35c-2.273,0-4.204,0.521-5.795,1.563c-1.591,1.041-2.888,2.433-3.892,4.175
		c-0.946,1.666-1.652,3.618-2.116,5.852s-0.696,4.583-0.696,7.045c0,2.727,0.246,5.189,0.739,7.386
		c0.493,2.197,1.268,4.147,2.329,5.852c1.023,1.666,2.311,2.968,3.863,3.906c1.553,0.937,3.409,1.405,5.568,1.405
		c2.027,0,3.854-0.473,5.483-1.419C35.611,45.725,36.938,44.4,37.96,42.695z"/>
</g>
</svg>
