<?xml version="1.0" encoding="utf-8"?>
<!-- Generator: Adobe Illustrator 17.0.0, SVG Export Plug-In . SVG Version: 6.00 Build 0)  -->
<!DOCTYPE svg PUBLIC "-//W3C//DTD SVG 1.1//EN" "http://www.w3.org/Graphics/SVG/1.1/DTD/svg11.dtd">
<svg version="1.1" id="Layer_1" xmlns="http://www.w3.org/2000/svg" xmlns:xlink="http://www.w3.org/1999/xlink" x="0px" y="0px"
	 width="83px" height="84.037px" viewBox="0 0 83 84.037" enable-background="new 0 0 83 84.037" xml:space="preserve">
<path fill="#002E94" d="M41.5,4.519C20.789,4.519,4,21.308,4,42.019s16.789,37.5,37.5,37.5S79,62.729,79,42.019
	S62.211,4.519,41.5,4.519z M56.805,20.434c-2.09,0.024-4.903,0.016-6.992,0.059c-2.134,0.043-3.165,1.058-3.192,3.165
	c-0.031,2.402-0.007,4.805-0.007,7.391c2.937,0,7.353-0.005,10.081,0.002c-0.794,3.786-1.855,9.073-2.5,11.471
	C52.186,42.484,50.176,43,48.166,43C47.696,43,46,43,46,43s0,0.109,0,0.578c0,9.886,0.328,31.049,0.328,31.049l-14.535-0.074
	c0,0,0.003-20.986,0.001-30.752c0-1.765,0.033-1.768-1.776-1.778c-0.964-0.005-3.839,0.009-3.839,0.009L26.11,31.08l4.483-0.014
	c1.023,0.037,1.303-0.447,1.289-1.4c-0.039-2.531-0.068-5.066,0.024-7.595c0.138-3.835,1.19-7.342,4.303-9.868
	c2.102-1.705,4.64-2.523,7.293-2.631c4.294-0.174,9.079-0.106,13.378-0.161C56.881,12.832,56.805,17.896,56.805,20.434z"/>
</svg>
