<?xml version="1.0" encoding="utf-8"?>
<!-- Generator: Adobe Illustrator 17.0.0, SVG Export Plug-In . SVG Version: 6.00 Build 0)  -->
<!DOCTYPE svg PUBLIC "-//W3C//DTD SVG 1.1//EN" "http://www.w3.org/Graphics/SVG/1.1/DTD/svg11.dtd">
<svg version="1.1" id="Layer_1" xmlns="http://www.w3.org/2000/svg" xmlns:xlink="http://www.w3.org/1999/xlink" x="0px" y="0px"
	 width="57px" height="59px" viewBox="0 0 57 59" enable-background="new 0 0 57 59" xml:space="preserve">
<path d="M33.603,42.337c1.203-0.237,2.325-0.409,3.421-0.684c3.301-0.828,6.079-2.445,7.6-5.629
	c1.599-3.349,1.962-6.876,1.037-10.493c-0.358-1.399-1.076-2.631-2.015-3.723c-0.256-0.297-0.314-0.539-0.196-0.929
	c0.651-2.155,0.469-4.287-0.322-6.369c-0.078-0.206-0.432-0.429-0.663-0.434c-1.321-0.03-2.548,0.399-3.712,0.968
	c-1.02,0.498-1.984,1.11-2.99,1.639c-0.222,0.117-0.538,0.182-0.775,0.124c-4.338-1.058-8.67-1.059-13.009-0.005
	c-0.268,0.065-0.639-0.036-0.885-0.186c-1.8-1.1-3.624-2.131-5.743-2.489c-0.065-0.011-0.129-0.028-0.194-0.037
	c-1.106-0.158-1.219-0.093-1.538,0.958c-0.606,1.995-0.705,3.997-0.078,6.013c0.052,0.167,0.002,0.442-0.111,0.571
	c-2.481,2.857-2.961,6.223-2.433,9.805c0.187,1.267,0.49,2.545,0.952,3.737c1.401,3.618,4.271,5.538,7.895,6.475
	c1.118,0.289,2.264,0.466,3.47,0.709c-0.907,0.977-1.394,2.123-1.627,3.394c-0.026,0.142-0.238,0.299-0.398,0.361
	c-2.95,1.136-5.815,0.651-7.631-2.357c-0.857-1.419-2.036-2.468-3.713-2.804c-0.416-0.083-0.876-0.07-1.294,0.012
	c-0.584,0.115-0.671,0.442-0.28,0.88c0.188,0.21,0.404,0.412,0.645,0.555c1.499,0.894,2.45,2.239,3.091,3.809
	c1.022,2.503,2.993,3.648,5.552,3.845c1.274,0.098,2.568-0.072,3.922-0.124c0,1.685,0.046,3.457-0.019,5.224
	c-0.034,0.902-0.989,1.318-2.035,0.971c-2.341-0.776-4.554-1.831-6.567-3.251C4.628,46.992,0.423,38.935,0.878,28.744
	C1.444,16.067,10.727,5.657,23.24,3.252c14.345-2.758,28.32,6.005,32.034,20.086c3.625,13.744-4.253,28.282-17.752,32.763
	c-1.373,0.456-2.165-0.117-2.163-1.575c0.003-2.3,0.012-4.601,0.022-6.901C35.39,45.693,35.039,43.878,33.603,42.337z"/>
</svg>
