<?xml version="1.0" encoding="utf-8"?>
<!-- Generator: Adobe Illustrator 17.0.0, SVG Export Plug-In . SVG Version: 6.00 Build 0)  -->
<!DOCTYPE svg PUBLIC "-//W3C//DTD SVG 1.1//EN" "http://www.w3.org/Graphics/SVG/1.1/DTD/svg11.dtd">
<svg version="1.1" id="Layer_1" xmlns="http://www.w3.org/2000/svg" xmlns:xlink="http://www.w3.org/1999/xlink" x="0px" y="0px"
	 width="83px" height="84.037px" viewBox="0 0 83 84.037" enable-background="new 0 0 83 84.037" xml:space="preserve">
<g>
	<path fill="#E5190A" d="M37.941,70.905c2.199-2.224,3.028-6.426,1.239-8.653c-2.548-3.173-5.624-5.748-10.101-5.615
		c-3.465,0.011-6.943,1.308-9.204,3.435c-3.086,2.901-3.248,6.619-0.641,9.951C23.601,75.604,34.407,74.481,37.941,70.905z"/>
	<path fill="#E5190A" d="M36.331,38.582c-0.333-5.369-1.941-9.29-6.127-11.68c-3.409-1.946-6.93-0.69-8.532,2.84
		c-2.332,5.14,0.318,12.796,5.316,15.355c3.09,1.582,6.412,0.648,8.001-2.463C35.729,41.186,36.033,39.515,36.331,38.582z"/>
	<path fill="#E5190A" d="M68.788,41.768c0,4.236,0,7.211,0,11.564c-1.067,0.099-4.099,0.178-5.244,0.284c0-4.402,0-7.456,0-11.961
		c-4.499,0-7.634,0-11.989,0c0-1.337,0-4.509,0-5.779c4.143,0,7.281,0,11.886,0c0-4.618,0-7.86,0-12.199c1.096,0,4.386,0,5.482,0
		c0,4.303,0,7.509,0,12.061c3.38,0,6.104,0,9.055,0C74.993,18.286,59.803,5,41.5,5C21.055,5,4.481,21.574,4.481,42.019
		c0,8.359,2.773,16.069,7.447,22.266c0.111-0.334,0.236-0.669,0.388-1.002c1.235-2.699,3.358-4.502,5.899-5.918
		c3.601-2.006,7.541-2.346,12.166-2.246c-2.384-2.344-2.638-4.741-1.701-7.3c-1.452-0.183-2.685-0.269-3.89-0.504
		c-4.5-0.876-7.728-3.365-9.153-7.789c-1.422-4.414-0.648-8.549,3.021-11.484c2.309-1.847,4.955-2.629,7.868-3.366
		c6.083-1.539,12.549-1,18.823-1c-1.833,2.349-4.246,3.357-7.602,2.663c4.577,5.104,5.553,10.202,2.818,14.484
		c-0.995,1.558-2.473,2.846-3.874,4.098c-3.118,2.786-3.227,4.553-0.171,7.365c1.392,1.281,2.905,2.431,4.355,3.649
		c4.621,3.88,5.1,13.691-1.694,17.532c-2.655,1.501-5.796,2.145-8.716,3.179c-0.688,0-1.376,0-2.064,0
		c4.073,1.541,8.485,2.392,13.098,2.392c20.445,0,37.019-16.574,37.019-37.019c0-0.084-0.006-0.167-0.006-0.25
		C75.331,41.768,72.455,41.768,68.788,41.768z"/>
</g>
</svg>
