<?xml version="1.0" encoding="utf-8"?>
<!-- Generator: Adobe Illustrator 17.0.0, SVG Export Plug-In . SVG Version: 6.00 Build 0)  -->
<!DOCTYPE svg PUBLIC "-//W3C//DTD SVG 1.1//EN" "http://www.w3.org/Graphics/SVG/1.1/DTD/svg11.dtd">
<svg version="1.1" id="Layer_1" xmlns="http://www.w3.org/2000/svg" xmlns:xlink="http://www.w3.org/1999/xlink" x="0px" y="0px"
	 width="83px" height="84.037px" viewBox="0 0 83 84.037" enable-background="new 0 0 83 84.037" xml:space="preserve">
<path fill="#6AD5FF" d="M41.5,5C21.055,5,4.481,21.574,4.481,42.019S21.055,79.037,41.5,79.037s37.019-16.574,37.019-37.019
	S61.945,5,41.5,5z M66.119,29.733c-0.824,0.855-1.712,1.657-2.636,2.403c-0.441,0.356-0.606,0.699-0.602,1.256
	c0.051,7.062-1.928,13.516-6.007,19.276c-5.02,7.089-11.847,11.341-20.46,12.623c-7.411,1.103-14.419-0.094-20.948-3.848
	c-0.183-0.105-0.367-0.211-0.545-0.325c-0.036-0.023-0.048-0.082-0.144-0.257c5.86,0.422,11.111-1.037,15.713-4.642
	c-4.9-0.548-8.255-3.024-10.159-7.726c1.675,0.221,3.205,0.29,4.887-0.261c-5.498-1.674-8.387-5.242-8.818-10.794
	c1.608,0.447,3.156,0.878,4.704,1.308c0.062-0.073,0.124-0.146,0.186-0.219c-4.846-4.047-5.957-8.906-3.362-14.779
	c6.12,7.102,13.667,11.011,22.934,11.634c-0.055-0.983-0.143-1.819-0.142-2.656c0.003-6.474,5.493-11.483,11.944-10.953
	c2.611,0.214,4.847,1.222,6.74,3c0.377,0.354,0.732,0.478,1.203,0.302c1.824-0.684,3.649-1.367,5.472-2.053
	c0.186-0.07,0.365-0.16,0.72-0.317c-0.877,2.542-2.425,4.335-4.429,5.825c2.017-0.114,3.89-0.704,5.851-1.307
	C67.526,28.063,66.875,28.949,66.119,29.733z"/>
</svg>
