<?xml version="1.0" encoding="utf-8"?>
<!-- Generator: Adobe Illustrator 17.0.0, SVG Export Plug-In . SVG Version: 6.00 Build 0)  -->
<!DOCTYPE svg PUBLIC "-//W3C//DTD SVG 1.1//EN" "http://www.w3.org/Graphics/SVG/1.1/DTD/svg11.dtd">
<svg version="1.1" id="Layer_1" xmlns="http://www.w3.org/2000/svg" xmlns:xlink="http://www.w3.org/1999/xlink" x="0px" y="0px"
	 width="207px" height="65px" viewBox="0 0 207 65" enable-background="new 0 0 207 65" xml:space="preserve">
<g>
	<polygon points="28.491,22.51 25.082,62.125 68.06,19.054 	"/>
	<polygon points="8.774,3.378 24.417,61.508 27.79,22.316 	"/>
	<polygon points="9.283,2.875 28.295,21.809 67.438,18.391 	"/>
</g>
<g>
	<path d="M79.794,23.184l-0.805,3.564h-0.966l3.518-16.119h1.541l3.587,16.119h-1.058l-0.805-3.564H79.794z M79.955,22.264h4.691
		l-2.369-10.416L79.955,22.264z"/>
	<path d="M88.281,26.748V10.652h1.058v15.131h5.059v0.966h-6.117V26.748z"/>
	<path d="M102.861,14.584v1.195h-1.011v-1.265c0-1.725-0.667-3.035-2.438-3.035s-2.438,1.311-2.438,3.035v8.37
		c0,1.725,0.667,3.013,2.438,3.013s2.438-1.288,2.438-3.013v-3.472h-2.139v-0.966h3.15v4.368c0,2.323-1.012,4.07-3.472,4.07
		s-3.473-1.747-3.473-4.07v-8.231c0-2.323,1.012-4.07,3.473-4.07S102.861,12.261,102.861,14.584z"/>
	<path d="M104.564,14.584c0-2.346,1.081-4.07,3.519-4.07c2.483,0,3.564,1.725,3.564,4.07v8.231c0,2.346-1.081,4.07-3.564,4.07
		c-2.438,0-3.519-1.725-3.519-4.07V14.584z M105.622,22.885c0,1.748,0.69,3.035,2.461,3.035c1.794,0,2.507-1.287,2.507-3.035v-8.37
		c0-1.747-0.713-3.035-2.507-3.035c-1.771,0-2.461,1.288-2.461,3.035C105.622,14.515,105.622,22.885,105.622,22.885z"/>
	<path d="M116.754,10.652c2.46,0,3.449,1.356,3.449,3.634v1.402c0,1.886-0.736,2.967-2.322,3.334
		c1.655,0.368,2.322,1.541,2.322,3.288v2.507c0,0.667,0.046,1.402,0.391,1.932h-1.104c-0.276-0.482-0.345-1.058-0.345-1.932v-2.529
		c0-2.139-1.173-2.736-3.013-2.736h-1.679v7.197h-1.058V10.652H116.754z M116.156,18.585c1.885,0,2.989-0.529,2.989-2.69v-1.518
		c0-1.725-0.667-2.76-2.415-2.76h-2.276v6.968H116.156z"/>
	<path d="M123.332,10.652v16.097h-1.058V10.652H123.332z"/>
	<path d="M127.885,26.748V11.617h-3.265v-0.966h7.611v0.966h-3.288v15.131H127.885z"/>
	<path d="M134.602,19.183v7.565h-1.058V10.652h1.058v7.565h5.013v-7.565h1.081v16.097h-1.081v-7.565L134.602,19.183L134.602,19.183z
		"/>
	<path d="M147.94,26.725h-1.058l-3.403-14.233v14.257h-0.942V10.652h1.518l3.38,14.234l3.357-14.234h1.518v16.097h-1.012V12.446
		L147.94,26.725z"/>
	<path d="M160.936,14.538v0.345h-1.012v-0.414c0-1.701-0.644-2.989-2.392-2.989c-1.747,0-2.392,1.265-2.392,2.966
		c0,3.909,5.818,3.979,5.818,8.417c0,2.322-1.012,4.023-3.473,4.023c-2.46,0-3.472-1.701-3.472-4.023v-0.828h1.012v0.896
		c0,1.725,0.667,2.967,2.438,2.967s2.438-1.242,2.438-2.967c0-3.863-5.818-3.932-5.818-8.416c0-2.414,1.058-3.979,3.427-4.001
		C159.947,10.514,160.936,12.215,160.936,14.538z"/>
	<path d="M184.836,23.03l0.681,0.722c-0.438,0.388-0.853,0.722-1.245,1.003c0.273,0.252,0.63,0.598,1.07,1.037
		c0.347,0.346,0.646,0.665,0.896,0.957h-1.401l-1.334-1.374c-0.838,0.675-1.519,1.114-2.043,1.319s-1.078,0.308-1.661,0.308
		c-0.774,0-1.396-0.223-1.866-0.667s-0.704-0.999-0.704-1.665c0-0.501,0.158-1.004,0.475-1.508s0.962-1.141,1.937-1.911
		c-0.551-0.665-0.904-1.156-1.062-1.473s-0.235-0.618-0.235-0.905c0-0.501,0.193-0.915,0.581-1.243
		c0.446-0.383,1.003-0.574,1.668-0.574c0.419,0,0.802,0.084,1.148,0.253s0.61,0.396,0.793,0.681
		c0.183,0.284,0.273,0.586,0.273,0.905c0,0.337-0.119,0.696-0.356,1.077c-0.237,0.38-0.705,0.866-1.402,1.459l1.524,1.6l0.998,1.013
		C184.106,23.649,184.528,23.311,184.836,23.03z M180.302,22.009c-0.854,0.643-1.414,1.154-1.679,1.535s-0.397,0.733-0.397,1.057
		c0,0.384,0.162,0.722,0.486,1.016s0.722,0.441,1.191,0.441c0.356,0,0.706-0.073,1.048-0.219c0.539-0.232,1.156-0.627,1.853-1.185
		l-1.586-1.634C180.944,22.734,180.64,22.397,180.302,22.009z M180.425,20.678c0.488-0.378,0.855-0.75,1.103-1.114
		c0.173-0.26,0.26-0.49,0.26-0.69c0-0.232-0.113-0.433-0.339-0.602c-0.227-0.169-0.527-0.253-0.901-0.253
		c-0.357,0-0.647,0.087-0.871,0.26s-0.336,0.378-0.336,0.615c0,0.183,0.046,0.354,0.138,0.513
		C179.701,19.794,180.017,20.218,180.425,20.678z"/>
	<path d="M81.794,38.252c2.483,0,3.564,1.633,3.564,4.001v8.095c0,2.368-1.081,4.001-3.564,4.001h-3.541V38.252H81.794z
		 M81.771,53.383c1.793,0,2.529-1.219,2.529-2.989v-8.187c0-1.771-0.759-2.989-2.529-2.989h-2.46v14.165
		C79.311,53.383,81.771,53.383,81.771,53.383z"/>
	<path d="M88.626,50.784l-0.805,3.564h-0.966l3.518-16.119h1.541l3.587,16.119h-1.058l-0.805-3.564H88.626z M88.787,49.864h4.691
		l-2.369-10.416L88.787,49.864z"/>
	<path d="M98.953,54.348v-15.13h-3.266v-0.966h7.612v0.966h-3.289v15.131L98.953,54.348L98.953,54.348z"/>
	<path d="M105.278,50.784l-0.806,3.564h-0.965l3.518-16.119h1.541l3.587,16.119h-1.058l-0.805-3.564H105.278z M105.438,49.864h4.691
		l-2.368-10.416L105.438,49.864z"/>
	<path d="M124.113,42.138v0.345h-1.012v-0.414c0-1.702-0.644-2.989-2.392-2.989c-1.747,0-2.392,1.265-2.392,2.966
		c0,3.909,5.818,3.979,5.818,8.417c0,2.322-1.012,4.023-3.473,4.023c-2.46,0-3.472-1.701-3.472-4.023v-0.828h1.012v0.896
		c0,1.725,0.667,2.967,2.438,2.967s2.438-1.242,2.438-2.967c0-3.863-5.818-3.932-5.818-8.416c0-2.414,1.058-3.979,3.427-4.001
		C123.125,38.114,124.113,39.815,124.113,42.138z"/>
	<path d="M128.553,54.348v-15.13h-3.265v-0.966h7.611v0.966h-3.288v15.131L128.553,54.348L128.553,54.348z"/>
	<path d="M137.569,38.252c2.46,0,3.449,1.356,3.449,3.634v1.402c0,1.886-0.736,2.966-2.322,3.334
		c1.655,0.368,2.322,1.541,2.322,3.288v2.507c0,0.667,0.046,1.402,0.391,1.932h-1.104c-0.276-0.482-0.345-1.058-0.345-1.932v-2.529
		c0-2.139-1.173-2.736-3.013-2.736h-1.679v7.197h-1.058V38.252H137.569z M136.971,46.185c1.886,0,2.99-0.529,2.99-2.69v-1.518
		c0-1.725-0.667-2.76-2.415-2.76h-2.276v6.968H136.971z"/>
	<path d="M144.102,50.463c0,1.725,0.644,3.058,2.414,3.058s2.415-1.333,2.415-3.058V38.252h0.988v12.164
		c0,2.3-0.966,4.07-3.426,4.07c-2.461,0-3.449-1.771-3.449-4.07V38.252h1.058V50.463z"/>
	<path d="M158.612,42.184v1.333H157.6v-1.402c0-1.725-0.667-3.035-2.438-3.035s-2.438,1.311-2.438,3.035v8.37
		c0,1.725,0.667,3.013,2.438,3.013s2.438-1.288,2.438-3.013v-1.908h1.012v1.839c0,2.323-1.012,4.07-3.472,4.07
		c-2.461,0-3.473-1.747-3.473-4.07v-8.231c0-2.323,1.012-4.07,3.473-4.07C157.601,38.114,158.612,39.861,158.612,42.184z"/>
	<path d="M163.052,54.348v-15.13h-3.265v-0.966h7.611v0.966h-3.288v15.131L163.052,54.348L163.052,54.348z"/>
	<path d="M169.723,50.463c0,1.725,0.644,3.058,2.414,3.058s2.415-1.333,2.415-3.058V38.252h0.988v12.164
		c0,2.3-0.966,4.07-3.426,4.07c-2.461,0-3.449-1.771-3.449-4.07V38.252h1.058V50.463z"/>
	<path d="M180.716,38.252c2.46,0,3.449,1.356,3.449,3.634v1.402c0,1.886-0.736,2.966-2.322,3.334
		c1.655,0.368,2.322,1.541,2.322,3.288v2.507c0,0.667,0.046,1.402,0.391,1.932h-1.104c-0.276-0.482-0.345-1.058-0.345-1.932v-2.529
		c0-2.139-1.173-2.736-3.013-2.736h-1.679v7.197h-1.058V38.252H180.716z M180.117,46.185c1.886,0,2.99-0.529,2.99-2.69v-1.518
		c0-1.725-0.667-2.76-2.415-2.76h-2.276v6.968H180.117z"/>
	<path d="M191.686,45.702v0.966h-4.392v6.715h5.289v0.966h-6.347V38.252h6.347v0.966h-5.289v6.484H191.686z"/>
	<path d="M201.093,42.138v0.345h-1.012v-0.414c0-1.702-0.644-2.989-2.392-2.989c-1.747,0-2.392,1.265-2.392,2.966
		c0,3.909,5.818,3.979,5.818,8.417c0,2.322-1.012,4.023-3.473,4.023c-2.46,0-3.472-1.701-3.472-4.023v-0.828h1.012v0.896
		c0,1.725,0.667,2.967,2.438,2.967s2.438-1.242,2.438-2.967c0-3.863-5.818-3.932-5.818-8.416c0-2.414,1.058-3.979,3.427-4.001
		C200.104,38.114,201.093,39.815,201.093,42.138z"/>
</g>
</svg>
