<?xml version="1.0" encoding="utf-8"?>
<!-- Generator: Adobe Illustrator 17.0.0, SVG Export Plug-In . SVG Version: 6.00 Build 0)  -->
<!DOCTYPE svg PUBLIC "-//W3C//DTD SVG 1.1//EN" "http://www.w3.org/Graphics/SVG/1.1/DTD/svg11.dtd">
<svg version="1.1" id="Layer_1" xmlns="http://www.w3.org/2000/svg" xmlns:xlink="http://www.w3.org/1999/xlink" x="0px" y="0px"
	 width="308.13px" height="257.838px" viewBox="0 0 308.13 257.838" enable-background="new 0 0 308.13 257.838"
	 xml:space="preserve">
<g id="Layer_1_1_">
	<rect x="-1" y="-1.703" width="311" height="261"/>
</g>
<rect x="138.908" y="14.749" transform="matrix(0.7071 0.7071 -0.7071 0.7071 137.7967 -58.8265)" fill="#00FF00" width="2" height="244.346"/>
<rect x="60" y="186.297" fill="#FFFF00" width="181" height="2"/>
<path fill="#FF1D25" d="M53.501,223.67l-1.199-2.709l0.133-0.223c0.438-0.731,10.839-18.262,21.197-49.915
	c9.669-29.549,21.195-77.438,21.195-137.774v-0.5h2.081v0.5c0,61.01-11.656,109.415-21.435,139.278
	c-10.572,32.291-21.368,50.342-21.475,50.521L53.501,223.67z M53.425,221.028l0.204,0.461c2.218-3.896,11.633-21.188,20.893-49.473
	c9.729-29.713,21.321-77.826,21.385-138.467h-0.081c-0.063,60.233-11.579,108.048-21.244,137.584
	C64.691,201.362,54.741,218.785,53.425,221.028z"/>
<path fill="#3FA9F5" d="M56.788,222.297h-2c0-24,31.716-45.282,94.267-63.043c46.304-13.147,93.213-19.586,93.682-19.649
	l0.264,2.157C241.138,142.01,56.788,167.297,56.788,222.297z"/>
<g>
	<g>
		
			<line fill="none" stroke="#FFFFFF" stroke-width="2" stroke-miterlimit="10" x1="53.541" y1="223.563" x2="273.081" y2="223.563"/>
		<g>
			<g>
				
					<line fill="none" stroke="#FFFFFF" stroke-width="2" stroke-miterlimit="10" x1="53.541" y1="223.563" x2="53.541" y2="218.993"/>
				
					<line fill="none" stroke="#FFFFFF" stroke-width="2" stroke-miterlimit="10" x1="163.311" y1="223.563" x2="163.311" y2="218.993"/>
				
					<line fill="none" stroke="#FFFFFF" stroke-width="2" stroke-miterlimit="10" x1="273.081" y1="223.563" x2="273.081" y2="218.993"/>
			</g>
		</g>
	</g>
	<g>
		<line fill="none" stroke="#FFFFFF" stroke-width="2" stroke-miterlimit="10" x1="53.541" y1="223.563" x2="53.541" y2="40.779"/>
		<g>
			<g>
				
					<line fill="none" stroke="#FFFFFF" stroke-width="2" stroke-miterlimit="10" x1="53.541" y1="223.563" x2="59.029" y2="223.563"/>
				
					<line fill="none" stroke="#FFFFFF" stroke-width="2" stroke-miterlimit="10" x1="53.541" y1="187.006" x2="59.029" y2="187.006"/>
				
					<line fill="none" stroke="#FFFFFF" stroke-width="2" stroke-miterlimit="10" x1="53.541" y1="150.449" x2="59.029" y2="150.449"/>
				
					<line fill="none" stroke="#FFFFFF" stroke-width="2" stroke-miterlimit="10" x1="53.541" y1="113.892" x2="59.029" y2="113.892"/>
				<line fill="none" stroke="#FFFFFF" stroke-width="2" stroke-miterlimit="10" x1="53.541" y1="77.336" x2="59.029" y2="77.336"/>
				<line fill="none" stroke="#FFFFFF" stroke-width="2" stroke-miterlimit="10" x1="53.541" y1="40.779" x2="59.029" y2="40.779"/>
			</g>
		</g>
	</g>
	<g>
		<g>
			<g>
				<path fill="none" stroke="#FFFFFF" stroke-width="2" stroke-linecap="round" stroke-miterlimit="10" d="M218.196,223.544"/>
			</g>
		</g>
		<g>
			<g>
				<path fill="none" stroke="#FFFFFF" stroke-width="2" stroke-linecap="round" stroke-miterlimit="10" d="M218.196,223.544"/>
			</g>
		</g>
	</g>
	<g>
		<g>
			<g>
				<path fill="#DFDFDF" stroke="#FFFFFF" stroke-width="2" stroke-miterlimit="10" d="M105.426,220.471"/>
				<path fill="#DFDFDF" stroke="#FFFFFF" stroke-width="2" stroke-miterlimit="10" d="M105.426,226.471"/>
			</g>
		</g>
	</g>
</g>
<text transform="matrix(1 0 0 1 51.274 28.6958)" fill="#FFFFFF" font-family="'Consolas'" font-size="12">t</text>
<text transform="matrix(1 0 0 1 270.0037 235.3444)" fill="#FFFFFF" font-family="'Consolas'" font-size="12">n</text>
<text transform="matrix(1 0 0 1 220.544 45.4255)" fill="#00FF00" font-family="'Consolas'" font-size="12">O(n)</text>
<text transform="matrix(1 0 0 1 244.8681 189.5473)" fill="#FFFF00" font-family="'Consolas'" font-size="12">O(1)</text>
<text transform="matrix(1 0 0 1 74.6362 26.2093)" fill="#FF1D25" font-family="'Consolas'" font-size="12">O(n^2)</text>
<text transform="matrix(1 0 0 1 244.8681 140.4798)" fill="#3FA9F5" font-family="'Consolas'" font-size="12">O(Log n)</text>
<path fill="none" stroke="#D70096" stroke-width="2" stroke-miterlimit="10" d="M54.788,222.297c0,0,95.712-82.692,95.712-178.878"
	/>
<text transform="matrix(1 0 0 1 129.6362 36.2093)" fill="#D70096" font-family="'Consolas'" font-size="12">O(n log n)</text>
</svg>
